# xmcd CD database file
#
# Track frame offsets:
#	150
#	18747
#	33420
#	47092
#	61015
#	92202
#	130020
#	164812
#	178720
#	215775
#	231525
#	249087
#	276227
#
# Disc length: 3871 seconds
#
# Revision: 0
# Processed by: cddbd v1.4PL0 Copyright (c) Steve Scherf et al.
# Submitted via: CDex 1.50Beta6
#
DISCID=be0f1d0d
DTITLE=Various Artist - Jazz Vibes Collection
DYEAR=2001
DGENRE=Jazz
TTITLE0=Air Mail Special (Lionel Hampton)
TTITLE1=Avalon (Benny Goodman Trio)
TTITLE2=Bop (The Red Norvo Septet)
TTITLE3=Bag's Groove (Milt Jackson)
TTITLE4=Nica's Dream (The Mastersounds)
TTITLE5=Manha De Carnaval (Dexter Gordon)
TTITLE6=Ummh (Booby Hutcherson)
TTITLE7=That's Right (Woody Herman)
TTITLE8=Walkin' (George Shearing)
TTITLE9=Baubles, Bangles and Beads (Wes Montgomery)
TTITLE10=Vibe Boogie (Lionel Hampton)
TTITLE11=Afternoon i nParis (Milt Jackson)
TTITLE12=September in the Rain (George Shearing)
EXTD=YEAR: 2001
EXTT0=
EXTT1=
EXTT2=
EXTT3=
EXTT4=
EXTT5=
EXTT6=
EXTT7=
EXTT8=
EXTT9=
EXTT10=
EXTT11=
EXTT12=
PLAYORDER=
